<svg xmlns="http://www.w3.org/2000/svg" height="40" viewBox="0 -960 960 960" width="40"><path d="M423.333-325.334 702-604l-47.333-47.333L423.333-420 304.667-538.667 258-492l165.333 166.666ZM186.666-120q-27.5 0-47.083-19.583T120-186.666v-586.668q0-27.5 19.583-47.083T186.666-840h192.668q7.666-35.333 35.833-57.667Q443.333-920 480-920t64.833 22.333Q573-875.333 580.666-840h192.668q27.5 0 47.083 19.583T840-773.334v586.668q0 27.5-19.583 47.083T773.334-120H186.666Zm0-66.666h586.668v-586.668H186.666v586.668ZM480-794.667q13.667 0 23.5-9.833 9.833-9.834 9.833-23.5 0-13.667-9.833-23.5-9.833-9.834-23.5-9.834t-23.5 9.834q-9.833 9.833-9.833 23.5 0 13.666 9.833 23.5 9.833 9.833 23.5 9.833ZM186.666-186.666v-586.668 586.668Z"/></svg>