<svg xmlns="http://www.w3.org/2000/svg" height="40" viewBox="0 -960 960 960" width="40"><path d="M480-120q-65 0-120.833-31.333-55.834-31.334-84.5-88.667H160v-66.666h89.333q-5.666-24-5.833-48.334-.167-24.333-.167-49h-84v-66.666h84q0-26.001.5-51.667.5-25.667 6.834-51.001H160V-640h117.333q14-26.333 35.167-47t47.5-35l-72.666-72.667L332.667-840 424-748.667q28-9.666 56.667-9.666 28.666 0 56.666 9.666l92-91.333 45.334 45.333L602-722q26.333 14.333 46.833 35.167Q669.333-666 684.667-640h116v66.666h-91.334q7 25.334 6.834 51.001-.167 25.666-.167 51.667h84.667V-404H716q0 24.667.167 49 .166 24.334-5.5 48.334h90V-240H686q-28 58-84.167 89Q545.667-120 480-120Zm0-66.666q70 0 119.667-49.334 49.667-49.333 49.667-119.333V-520q0-70-49.667-119.333Q550-688.667 480-688.667t-119.667 49.334Q310.666-590 310.666-520v164.667q0 70 49.667 119.333Q410-186.666 480-186.666ZM400-320h160v-66.666H400V-320Zm0-168.667h160v-66.666H400v66.666Zm80 51.334h.333H480h.333H480h.333H480h.333H480Z"/></svg>