<svg xmlns="http://www.w3.org/2000/svg" height="40" viewBox="0 -960 960 960" width="40"><path d="M480-40q-112 0-212.667-61-100.667-61.001-160.667-146.001V-120H40v-240h240v66.666H155.666q50 75.334 139.167 131.001T480-106.666q77 0 145.167-29.5t118.667-80q50.5-50.5 80-118.667T853.334-480H920q0 91-34.5 171T791-169q-60 60-140 94.5T480-40Zm-31.333-155.333v-53.334Q403-260.333 372.833-287.833 342.667-315.333 324-362l56-20q12 39 40.833 60.5 28.834 21.5 65.834 21.5 37.666 0 63.167-18.166 25.5-18.167 25.5-50.5 0-31.667-24.834-52.667-24.833-21-90.5-47.334-59.667-23.666-88.833-52.666-29.167-29-29.167-77.334 0-43 29.5-74.833t79.167-39.833V-764h60v50.667Q548-709.667 576.5-687.667t43.5 57l-53.333 24Q554-633 533.333-647.5 512.667-662 482-662q-37.667 0-58.833 17Q402-628 402-598.667q0 30 25 47.667t83.667 40.333q69.999 28.001 97.333 61 27.333 33 27.333 81.001 0 26.333-9.333 47.666t-25.833 36.5q-16.5 15.167-39.834 24.667-23.333 9.5-51.666 13.166v51.334h-60ZM40-480q0-91 34.5-171T169-791q60-60 140-94.5T480-920q112 0 212.667 61 100.667 61.001 160.667 146.001V-840H920v240H680v-66.666h124.334Q754.334-742 665.5-797.667q-88.833-55.667-185.5-55.667-77 0-145.167 29.5t-118.667 80q-50.5 50.5-80 118.667T106.666-480H40Z"/></svg>