<svg xmlns="http://www.w3.org/2000/svg" height="40" viewBox="0 -960 960 960" width="40"><path d="M560-120q-13.667 0-23.5-9.833-9.833-9.834-9.833-23.5 0-14.333 9.833-23.833 9.833-9.5 23.5-9.5 55 0 94.167-22.167T693.334-260q0-20-24.001-38.667-24-18.667-65-30l50.999-51q52.668 19 78.668 50 26 31 26 69.667 0 66.667-61.667 103.333Q636.667-120 560-120ZM221.001-418q-52.334-15-76.667-42.5Q120-488 120-520q0-37.333 27.667-65.5 27.666-28.167 117-62.5 65-25.666 83.5-39.5 18.5-13.833 18.5-31.833 0-22-21.167-38.001-21.167-16-65.5-16-26.333 0-44.667 6.667-18.333 6.667-33 21.333-9 9-22.666 10.667Q166-733 155-742q-11.667-8.667-12.666-22-1-13.333 7.999-23.667Q168-810 202.5-825t77.5-15q69.333 0 111.333 32.5t42 88.167q0 40.333-28.667 69.666Q376-620.333 291.333-587q-64 25-84.333 38.667-20.334 13.666-20.334 28.333 0 13.667 21.834 26.167 21.834 12.5 64.501 23.833l-52 52ZM742-560 600-702l44.001-44q19.999-20 45.832-20 25.834 0 45.5 20L786-695.333q20 19.666 20 45.5 0 25.833-20 45.832L742-560ZM226.666-186.666h46.667l326.001-326.001-46.667-46.667-326.001 326.001v46.667ZM160-120v-141.999l392.667-392.668 142 142L301.999-120H160Zm392.667-439.334 46.667 46.667-46.667-46.667Z"/></svg>