<svg xmlns="http://www.w3.org/2000/svg" height="40" viewBox="0 -960 960 960" width="40"><path d="M186.666-80q-27 0-46.833-19.833T120-146.666v-600.001q0-27 19.833-46.833 19.833-19.834 46.833-19.834h56.667V-880h70v66.666h333.334V-880h70v66.666h56.667q27 0 46.833 19.834Q840-773.667 840-746.667v280.001h-66.666v-100.001H186.666v420.001H496V-80H186.666ZM760 0q-73 0-127.5-45.5T564-160h62q13 44 49.5 72T760-60q58 0 99-41t41-99q0-58-41-99t-99-41q-29 0-54 10.5T662-300h58v60H560v-160h60v57q27-26 63-41.5t77-15.5q83 0 141.5 58.5T960-200q0 83-58.5 141.5T760 0ZM186.666-633.333h586.668v-113.334H186.666v113.334Zm0 0v-113.334 113.334Z"/></svg>