<svg xmlns="http://www.w3.org/2000/svg" height="40" viewBox="0 -960 960 960" width="40"><path d="M385.333-749.334q-30.999 0-53.166-22.166Q310-793.667 310-824.667t22.167-53.166Q354.334-900 385.333-900q31 0 53.167 22.167 22.167 22.166 22.167 53.166 0 31-22.167 53.167-22.167 22.166-53.167 22.166ZM124-40l114.667-580.667L146.666-580v133.333H80v-178l198-82.666q29-12.334 59.666-5.167Q368.333-705.333 384-680l40.667 65.333q29 46.667 74.5 74 45.5 27.334 101.5 27.334v66.666q-66 0-120.5-29.667-54.5-29.666-96.834-86.333l-35.333 144L436.667-336v296H370v-240l-100.667-92-76 332H124Zm552.667 0v-563.333h-150V-880H880v276.667H730V-40h-53.333Zm45.666-607 94.334-94.333-94.334-94.334L684-797.333 713.334-768H584.667v53.333h128.667L684-685.333 722.333-647Z"/></svg>