<svg xmlns="http://www.w3.org/2000/svg" height="40" viewBox="0 -960 960 960" width="40"><path d="M449.896-413.333q40.771 0 68.771-27.896t28-68.667q0-40.771-27.896-68.771t-68.667-28q-40.771 0-68.771 27.896t-28 68.667q0 40.771 27.896 68.771t68.667 28ZM643-269.334 538.667-373.667Q517.333-360 494.833-353.334q-22.5 6.667-44.521 6.667-67.979 0-115.812-47.833T286.667-510q0-67.667 47.833-115.5T450-673.333q67.667 0 115.5 47.833t47.833 115.812q0 22.021-7.167 44.521-7.166 22.5-20.833 43.834L690.666-316 643-269.334ZM186.666-120q-27 0-46.833-19.833T120-186.666v-168.001h66.666v168.001h168.001V-120H186.666Zm418.667 0v-66.666h168.001v-168.001H840v168.001q0 27-19.833 46.833T773.334-120H605.333ZM120-605.333v-168.001q0-27 19.833-46.833T186.666-840h168.001v66.666H186.666v168.001H120Zm653.334 0v-168.001H605.333V-840h168.001q27 0 46.833 19.833T840-773.334v168.001h-66.666Z"/></svg>