<svg xmlns="http://www.w3.org/2000/svg" height="40" viewBox="0 -960 960 960" width="40"><path d="M480-280q-73 0-127.5-45.5T284-440h62q13 44 49.5 72t84.5 28q58 0 99-41t41-99q0-58-41-99t-99-41q-29 0-54 10.5T382-580h58v60H280v-160h60v57q27-26 63-41.5t77-15.5q83 0 141.5 58.5T680-480q0 83-58.5 141.5T480-280ZM186.666-120q-27 0-46.833-19.833T120-186.666v-168.001h66.666v168.001h168.001V-120H186.666Zm418.667 0v-66.666h168.001v-168.001H840v168.001q0 27-19.833 46.833T773.334-120H605.333ZM120-605.333v-168.001q0-27 19.833-46.833T186.666-840h168.001v66.666H186.666v168.001H120Zm653.334 0v-168.001H605.333V-840h168.001q27 0 46.833 19.833T840-773.334v168.001h-66.666Z"/></svg>