<svg xmlns="http://www.w3.org/2000/svg" height="40" viewBox="0 -960 960 960" width="40"><path d="M228-80q-45.834 0-77.917-32.083T118-190v-123.333h124.667V-880l59.866 60 59.867-60 59.867 60 59.866-60L542-820l60-60 60 60 60-60 60 60 60-60v690q0 45.834-32.083 77.917T732-80H228Zm504-66.666q19 0 31.167-12.167Q775.334-171 775.334-190v-583.334H309.333v460.001h379.334V-190q0 19 12.167 31.167Q713-146.666 732-146.666ZM358-614.667v-66.666h240v66.666H358Zm0 129.334V-552h240v66.667H358Zm328.667-129.334q-13.667 0-23.5-9.833-9.833-9.834-9.833-23.5 0-13.667 9.833-23.5t23.5-9.833q13.666 0 23.5 9.833Q720-661.667 720-648q0 13.666-9.833 23.5-9.834 9.833-23.5 9.833Zm0 126q-13.667 0-23.5-9.833t-9.833-23.5q0-13.667 9.833-23.5t23.5-9.833q13.666 0 23.5 9.833Q720-535.667 720-522t-9.833 23.5q-9.834 9.833-23.5 9.833ZM227.333-146.666h394.668v-100.001H184.666V-190q0 19 12.267 31.167 12.267 12.167 30.4 12.167Zm-42.667 0v-100.001 100.001Z"/></svg>